<svg width="26" height="26" viewBox="0 0 26 26" fill="none" xmlns="http://www.w3.org/2000/svg">
<path d="M25.6965 24.1638L24.5291 22.9964L22.6539 21.1245L25.677 18.1015C25.8057 17.9726 25.8998 17.8134 25.9507 17.6385C26.0016 17.4636 26.0076 17.2788 25.9681 17.101C25.9287 16.9232 25.8451 16.7582 25.7251 16.6212C25.6051 16.4842 25.4524 16.3797 25.2814 16.3173L15.5597 12.7902C15.1724 12.6503 14.7533 12.6235 14.3514 12.713C13.9495 12.8026 13.5814 13.0047 13.2902 13.2958C12.999 13.5869 12.7967 13.9549 12.707 14.3568C12.6173 14.7587 12.6439 15.1778 12.7838 15.5651L16.3206 25.2868C16.3827 25.458 16.487 25.6109 16.6237 25.7312C16.7605 25.8515 16.9254 25.9353 17.1032 25.9751C17.1804 25.9919 17.2593 26.0002 17.3384 26C17.6258 25.9999 17.9015 25.8857 18.1047 25.6824L21.1245 22.6539L22.9965 24.5259L24.1638 25.6932C24.3683 25.8907 24.6421 25.9999 24.9263 25.9975C25.2105 25.995 25.4823 25.881 25.6833 25.68C25.8843 25.4791 25.9983 25.2072 26.0007 24.923C26.0032 24.6388 25.8939 24.365 25.6965 24.1606V24.1638ZM17.7763 22.9412L14.8237 14.8226L22.9423 17.7752L17.7763 22.9412Z" fill="white"/>
<path d="M10.8392 21.6784C8.69543 21.6784 6.59977 21.0427 4.81728 19.8517C3.03478 18.6607 1.64549 16.9678 0.825091 14.9872C0.00469646 13.0066 -0.209956 10.8272 0.208277 8.7246C0.626511 6.62199 1.65885 4.69063 3.17474 3.17474C4.69063 1.65885 6.62199 0.626511 8.7246 0.208277C10.8272 -0.209956 13.0066 0.00469646 14.9872 0.825091C16.9678 1.64549 18.6607 3.03478 19.8517 4.81728C21.0427 6.59977 21.6784 8.69543 21.6784 10.8392C21.6784 11.1267 21.5642 11.4024 21.361 11.6057C21.1577 11.8089 20.882 11.9231 20.5945 11.9231C20.307 11.9231 20.0313 11.8089 19.8281 11.6057C19.6248 11.4024 19.5106 11.1267 19.5106 10.8392C19.5106 9.12419 19.002 7.44766 18.0492 6.02166C17.0964 4.59566 15.7421 3.48423 14.1576 2.82792C12.5731 2.1716 10.8296 1.99988 9.14752 2.33447C7.46544 2.66905 5.92035 3.49492 4.70763 4.70763C3.49492 5.92035 2.66905 7.46544 2.33447 9.14752C1.99988 10.8296 2.1716 12.5731 2.82792 14.1576C3.48423 15.7421 4.59566 17.0964 6.02166 18.0492C7.44766 19.002 9.12419 19.5106 10.8392 19.5106C11.1267 19.5106 11.4024 19.6248 11.6057 19.8281C11.8089 20.0313 11.9231 20.307 11.9231 20.5945C11.9231 20.882 11.8089 21.1577 11.6057 21.361C11.4024 21.5642 11.1267 21.6784 10.8392 21.6784Z" fill="white"/>
<path d="M8.76239 16.9308C8.61994 16.9309 8.47887 16.9029 8.34725 16.8485C7.35964 16.4383 6.48842 15.7909 5.81074 14.9636C5.13307 14.1363 4.66986 13.1547 4.46213 12.1056C4.2544 11.0566 4.30857 9.97254 4.61984 8.94943C4.9311 7.92633 5.48986 6.99576 6.24662 6.24016C7.00339 5.48455 7.9348 4.92722 8.95838 4.61752C9.98197 4.30783 11.0661 4.25532 12.1148 4.46465C13.1636 4.67398 14.1445 5.1387 14.9707 5.81763C15.797 6.49657 16.443 7.36878 16.8517 8.35702C16.909 8.48905 16.9394 8.63117 16.9412 8.77508C16.943 8.91899 16.916 9.06181 16.862 9.19522C16.808 9.32862 16.728 9.44993 16.6266 9.55207C16.5252 9.65421 16.4045 9.73513 16.2715 9.79012C16.1385 9.84511 15.9958 9.87305 15.8519 9.87233C15.708 9.87161 15.5657 9.84224 15.4332 9.78592C15.3008 9.7296 15.1809 9.64748 15.0805 9.54433C14.9801 9.44118 14.9013 9.31907 14.8486 9.18513C14.5755 8.52691 14.1444 7.94614 13.5934 7.49422C13.0424 7.0423 12.3885 6.73316 11.6896 6.59417C10.9906 6.45517 10.2682 6.4906 9.58621 6.69731C8.90423 6.90403 8.28371 7.27566 7.77956 7.77932C7.27542 8.28298 6.90319 8.90314 6.69582 9.58493C6.48846 10.2667 6.45234 10.9891 6.59067 11.6882C6.729 12.3873 7.03751 13.0415 7.4889 13.5929C7.94029 14.1443 8.52065 14.576 9.17862 14.8497C9.4105 14.9457 9.60189 15.1191 9.72016 15.3405C9.83842 15.5618 9.87621 15.8173 9.8271 16.0634C9.77798 16.3095 9.64499 16.5309 9.45082 16.6899C9.25666 16.8489 9.01334 16.9356 8.76239 16.9352V16.9308Z" fill="white"/>
</svg>
