<svg width="26" height="26" viewBox="0 0 26 26" fill="none" xmlns="http://www.w3.org/2000/svg">
<path d="M13 0C10.4288 0 7.91543 0.762436 5.77759 2.19089C3.63975 3.61935 1.97351 5.64967 0.989572 8.02511C0.00563275 10.4006 -0.251811 13.0144 0.249797 15.5362C0.751405 18.0579 1.98953 20.3743 3.80762 22.1924C5.6257 24.0105 7.94208 25.2486 10.4638 25.7502C12.9856 26.2518 15.5994 25.9944 17.9749 25.0104C20.3503 24.0265 22.3806 22.3602 23.8091 20.2224C25.2376 18.0846 26 15.5712 26 13C25.9963 9.55333 24.6254 6.24889 22.1883 3.81173C19.7511 1.37456 16.4467 0.00372784 13 0ZM13 23.8333C10.8574 23.8333 8.76286 23.198 6.98133 22.0076C5.19979 20.8172 3.81126 19.1253 2.99131 17.1457C2.17136 15.1662 1.95682 12.988 2.37483 10.8865C2.79284 8.78506 3.82461 6.85474 5.33968 5.33968C6.85475 3.82461 8.78506 2.79283 10.8865 2.37483C12.988 1.95682 15.1662 2.17136 17.1457 2.9913C19.1253 3.81125 20.8172 5.19979 22.0076 6.98132C23.198 8.76285 23.8333 10.8574 23.8333 13C23.8302 15.8722 22.6878 18.6259 20.6568 20.6568C18.6259 22.6878 15.8722 23.8302 13 23.8333Z" fill="white"/>
<path d="M13 6.5C12.7127 6.5 12.4371 6.61414 12.234 6.8173C12.0308 7.02047 11.9167 7.29602 11.9167 7.58333V12.2687L8.26474 14.5567C8.02052 14.7093 7.84691 14.9526 7.7821 15.2332C7.71729 15.5138 7.76659 15.8086 7.91916 16.0528C8.07173 16.2971 8.31506 16.4707 8.59563 16.5355C8.8762 16.6003 9.17102 16.551 9.41524 16.3984L13.5752 13.7984C13.7324 13.6999 13.8617 13.5628 13.9506 13.4C14.0396 13.2372 14.0853 13.0544 14.0833 12.8689V7.58333C14.0833 7.29602 13.9692 7.02047 13.766 6.8173C13.5629 6.61414 13.2873 6.5 13 6.5Z" fill="white"/>
</svg>
