<svg width="20" height="20" viewBox="0 0 20 20" fill="none" xmlns="http://www.w3.org/2000/svg">
<path d="M10 -8.74228e-07C15.5163 -3.91979e-07 20 4.48372 20 10C20 15.5163 15.5163 20 10 20C4.48372 20 3.91979e-07 15.5163 8.74228e-07 10C1.35648e-06 4.48372 4.48372 -1.35648e-06 10 -8.74228e-07ZM10 18.6047C14.7442 18.6047 18.6047 14.7442 18.6047 10C18.6047 5.25581 14.7442 1.39535 10 1.39535C5.25582 1.39535 1.39535 5.25581 1.39535 10C1.39535 14.7442 5.25581 18.6046 10 18.6047Z" fill="#3B5EDF"/>
<path d="M11.1724 6.01838C11.3491 6.01838 11.5259 6.0835 11.6654 6.22303C11.9352 6.4928 11.9352 6.93931 11.6654 7.20908L8.87471 9.99977L11.6654 12.7905C11.9352 13.0603 11.9352 13.5068 11.6654 13.7766C11.3956 14.0463 10.9491 14.0463 10.6794 13.7766L7.39564 10.4928C7.12587 10.223 7.12587 9.77652 7.39564 9.50675L10.6794 6.22303C10.8189 6.0835 10.9956 6.01838 11.1724 6.01838Z" fill="#3B5EDF"/>
</svg>
