<svg width="26" height="24" viewBox="0 0 26 24" fill="none" xmlns="http://www.w3.org/2000/svg">
<path d="M20.5833 0H5.41667C3.9806 0.00172018 2.60385 0.572956 1.5884 1.58841C0.572955 2.60386 0.00172018 3.98061 0 5.41667L0 14.0833C0.00172018 15.5194 0.572955 16.8962 1.5884 17.9116C2.60385 18.9271 3.9806 19.4983 5.41667 19.5H11.9167V21.6667H7.58333C7.29601 21.6667 7.02046 21.7808 6.8173 21.984C6.61413 22.1871 6.5 22.4627 6.5 22.75C6.5 23.0373 6.61413 23.3129 6.8173 23.516C7.02046 23.7192 7.29601 23.8333 7.58333 23.8333H18.4167C18.704 23.8333 18.9795 23.7192 19.1827 23.516C19.3859 23.3129 19.5 23.0373 19.5 22.75C19.5 22.4627 19.3859 22.1871 19.1827 21.984C18.9795 21.7808 18.704 21.6667 18.4167 21.6667H14.0833V19.5H20.5833C22.0194 19.4983 23.3961 18.9271 24.4116 17.9116C25.427 16.8962 25.9983 15.5194 26 14.0833V5.41667C25.9983 3.98061 25.427 2.60386 24.4116 1.58841C23.3961 0.572956 22.0194 0.00172018 20.5833 0ZM5.41667 2.16667H20.5833C21.4453 2.16667 22.2719 2.50908 22.8814 3.11857C23.4909 3.72807 23.8333 4.55472 23.8333 5.41667V13H2.16667V5.41667C2.16667 4.55472 2.50908 3.72807 3.11857 3.11857C3.72806 2.50908 4.55471 2.16667 5.41667 2.16667ZM20.5833 17.3333H5.41667C4.74688 17.3306 4.09432 17.1209 3.54824 16.7331C3.00217 16.3452 2.58926 15.7982 2.366 15.1667H23.634C23.4107 15.7982 22.9978 16.3452 22.4517 16.7331C21.9057 17.1209 21.2531 17.3306 20.5833 17.3333Z" fill="white"/>
</svg>
