<svg width="35" height="26" viewBox="0 0 35 26" fill="none" xmlns="http://www.w3.org/2000/svg">
<path d="M31.5259 17.5991V17.7761L31.6928 17.8349C32.6001 18.1545 33.365 18.7848 33.8521 19.6143C34.3391 20.4439 34.5169 21.419 34.3539 22.367C34.1909 23.315 33.6977 24.1748 32.9615 24.7939C32.2254 25.4131 31.2938 25.7518 30.3319 25.75H30.3314H4.33142H4.33095C3.36902 25.7518 2.43748 25.4131 1.70133 24.7939C0.965176 24.1748 0.471917 23.315 0.308915 22.367C0.145912 21.419 0.323687 20.4439 0.81075 19.6143C1.29781 18.7848 2.06273 18.1545 2.97003 17.8349L3.13698 17.7761V17.5991L3.13698 7.22252C3.13698 7.22245 3.13698 7.22239 3.13698 7.22232C3.13924 5.37385 3.87455 3.60172 5.18163 2.29465C6.48871 0.987563 8.26085 0.252253 10.1093 0.25H24.5535C26.402 0.252253 28.1741 0.987563 29.4812 2.29465C30.7883 3.60177 31.5236 5.37397 31.5259 7.22252V17.5991ZM4.33142 26H30.3314L2.88698 17.5991C1.92399 17.9383 1.11212 18.6073 0.595167 19.4878C0.0782086 20.3682 -0.110477 21.4032 0.0625302 22.4094C0.235537 23.4156 0.759071 24.3281 1.54041 24.9853C2.32174 25.6425 3.31045 26.0019 4.33142 26ZM28.887 17.5833H29.137V17.3333V7.22222C29.137 6.00664 28.6541 4.84086 27.7945 3.98131C26.935 3.12177 25.7692 2.63889 24.5536 2.63889H10.1092C8.89362 2.63889 7.72783 3.12177 6.86829 3.98131C6.00875 4.84086 5.52587 6.00664 5.52587 7.22222V17.3333V17.5833H5.77587H11.7718H11.7719C12.1557 17.5831 12.5349 17.6665 12.8831 17.8279C13.2313 17.9892 13.5401 18.2246 13.788 18.5175L14.143 18.9388L14.2179 19.0278H14.3342H20.3272H20.4432L20.5181 18.9392L20.8748 18.5175C20.8748 18.5175 20.8748 18.5175 20.8748 18.5175C21.1228 18.2245 21.4316 17.9892 21.7797 17.8279C22.1279 17.6665 22.5072 17.5831 22.8909 17.5833H22.8911H28.887ZM28.637 17.3333H22.8911L5.77587 7.22222C5.77587 6.07295 6.23241 4.97075 7.04507 4.15809C7.85773 3.34543 8.95993 2.88889 10.1092 2.88889H24.5536C25.7029 2.88889 26.8051 3.34543 27.6178 4.15809C28.4304 4.97075 28.887 6.07295 28.887 7.22222V17.0833V17.3333H28.637ZM11.9644 20.0611L11.8895 19.9722H11.7732H4.33142C3.88203 19.9722 3.45104 20.1507 3.13327 20.4685C2.8155 20.7863 2.63698 21.2173 2.63698 21.6667C2.63698 22.1161 2.8155 22.547 3.13327 22.8648C3.45104 23.1826 3.88203 23.3611 4.33142 23.3611H30.3314C30.7808 23.3611 31.2118 23.1826 31.5296 22.8648C31.8473 22.547 32.0259 22.1161 32.0259 21.6667C32.0259 21.2173 31.8473 20.7863 31.5296 20.4685C31.2118 20.1507 30.7808 19.9722 30.3314 19.9722H22.8911H22.7751L22.7002 20.0608L22.3435 20.4825C22.3435 20.4825 22.3434 20.4825 22.3434 20.4825C22.0955 20.7755 21.7867 21.0108 21.4385 21.1721C21.0903 21.3335 20.7111 21.4169 20.3274 21.4167H20.3272H14.3342H14.3342C13.9506 21.4167 13.5717 21.3332 13.2237 21.1718C12.8759 21.0106 12.5673 20.7754 12.3196 20.4828C12.3195 20.4827 12.3194 20.4826 12.3194 20.4825L11.9644 20.0611ZM14.3342 21.6667H20.3272H14.3342Z" fill="white" stroke="#393939" stroke-width="0.5"/>
</svg>
